<?xml version="1.0" encoding="utf-8"?>
<!-- Generator: Adobe Illustrator 17.1.0, SVG Export Plug-In . SVG Version: 6.00 Build 0)  -->
<!DOCTYPE svg PUBLIC "-//W3C//DTD SVG 1.1//EN" "http://www.w3.org/Graphics/SVG/1.1/DTD/svg11.dtd">
<svg version="1.1" id="Layer_1" xmlns="http://www.w3.org/2000/svg" xmlns:xlink="http://www.w3.org/1999/xlink" x="0px" y="0px"
	 width="396px" height="788px" viewBox="0 0 396 788" enable-background="new 0 0 396 788" xml:space="preserve">
<path id="base-top" fill="#3E4143" d="M317.4,640.5c-11.9-38.7-21.7-70.3-22.4-72c-2-4.5-5-7-5-7h-30c0,0-35,38.5-78.5,38
	c-45.5-3-77.5-38-77.5-38s-25,0-29,0s-7.5,7.5-7.5,7.5l-22,71.5H317.4z"/>
<path id="base-bottom" fill="#3E4143" d="M321.7,654.5H41.1L0,788h362.5C362.5,788,340.6,716,321.7,654.5z M181.8,762
	c-20.8,0-37.8-16.8-37.8-37.5s16.9-37.5,37.8-37.5s37.8,16.8,37.8,37.5S202.6,762,181.8,762z"/>
<ellipse id="button" fill="#3E4143" cx="182" cy="723.9" rx="21" ry="20.9"/>
<path id="blender-top" fill="#3E4143" d="M118,27V6.5c0,0,1-6.5,7-6.5s114,0,114,0s6,0.5,6,8s0,19,0,19h111.5c0,0,6.5,1,7,7.5
	s0,49.5,0,49.5H0V35c0,0,0.5-7.5,6.5-7.5S118,27,118,27z"/>
<path id="blender-outside" fill="#3E4143" d="M387,110h-39V93.5H16.5c0,0,4.5,203,6,237.5S29,421,60,487s84,105.4,121.4,105
	s88.6-30.5,126.1-109.5s37-182.5,37-182.5c1.5-1,18.5-8.5,33-35c18-31,18.5-136,18.5-145S387,110,387,110z M369.5,239.5
	c-8,25.5-23,38-24.5,38l3.5-150h29C377.5,127.5,377.5,214,369.5,239.5z"/>
<path id="blender-inside" fill="#C7E0DE" d="M34,110h296.5l-4,197.5c0,0,5,74-31.5,157.5s-84.1,110.5-113.6,110.5
	S101,536,77.5,482.5s-35-99-37-132.5S34,110,34,110z"/>
<path fill="#86B44E" d="M43.8,264c0,0,23.5-11.5,46.8-10.5s59.3-0.8,116.6,46.5c56.2,37.5,64.7,38,108.7,27.5
	c1,29-6.4,62.8-6.4,62.8s-28.6,10.3-68.1,10.7s-112-35-145.5-31s-31.4,11.7-42.4,9C50.3,374.4,43.8,264,43.8,264z"/>
<path id="goop-2" fill="#E5BB3B" d="M300,425l9.5-34.5c0,0-64.6,22.5-115.2-1s-88.8-23.8-99.8-22.5C71.6,369.8,53,378,53,378
	s15.5,76.5,31,99.5c0,0,56.5,17.5,103.5,0s67-44.5,92.5-47.5C291.5,425,300,425,300,425z"/>
<path id="goop-3" fill="#DC553E" d="M300,425c0,0-15,70.5-65,112.5s-76,23-105,0s-46-60-46-60s54.8,18,117-8.2
	C247,449.8,264.8,425,300,425z"/>
<path id="goop-1-highlight" fill="#6B943E" d="M126.2,256.9c0,0,42.2,12,91.7,51.6c47.7,42.5,98.1,19,98.1,19S275.7,341.2,241,311
	C195.3,271.3,158.1,264.2,126.2,256.9z"/>
<path id="light-1" opacity="0.71" fill="#FFFFFF" enable-background="new    " d="M57,158.5c0,0-1.2-7.2,6.5-8C75,150,79,150,79,150
	s5,0.5,5,8.5s2.5,126.3,2.5,126.3s1.3,6.7-6.8,6.5c-10-0.2-14.2,0.1-14.2,0.1s-5.7,0.2-6-7C59,274,57,158.5,57,158.5z"/>
<path id="light-2" opacity="0.71" fill="#FFFFFF" enable-background="new    " d="M67.5,301h12c0,0,7,0,7,6c0,0,1.5,35,2.5,43.5
	S87.5,362,84,362s-14,0-14,0s-8.5,1.3-8.5-6.5c0-11.5-2.5-45-2.5-45s-1.3-9.5,5.5-9.5"/>
</svg>
