<?xml version="1.0" encoding="utf-8"?>
<!-- Generator: Adobe Illustrator 16.0.0, SVG Export Plug-In . SVG Version: 6.00 Build 0)  -->
<!DOCTYPE svg PUBLIC "-//W3C//DTD SVG 1.1//EN" "http://www.w3.org/Graphics/SVG/1.1/DTD/svg11.dtd">
<svg version="1.1" id="Layer_1" xmlns="http://www.w3.org/2000/svg" xmlns:xlink="http://www.w3.org/1999/xlink" x="0px" y="0px"
	 width="324.286px" height="270.095px" viewBox="0 0 324.286 270.095" enable-background="new 0 0 324.286 270.095"
	 xml:space="preserve">
<g>
	<defs>
		<path id="SVGID_1_" d="M191.632,126.748c-0.02,9.34,0.051,18.69-0.029,28.03c0.01,2.05-0.771,4.71-3.16,4.99
			c-3.09,1.04-5.11-2.03-6.68-4.13c-2.261,1.409-4.601,2.71-6.781,4.25c3.541,7.239,13.421,9.699,20.15,5.55
			c3.551-2.271,4.82-6.65,4.91-10.641c0.07-9.34-0.029-18.68,0.051-28.02C197.273,126.729,194.453,126.729,191.632,126.748z
			 M161.633,126.748c-0.02,9.33,0.05,18.67-0.03,28.01c0.01,2.061-0.77,4.74-3.19,5.021c-3.13,1.04-5.04-2.16-6.78-4.13
			c-2.17,1.46-4.48,2.71-6.63,4.21c3.47,7.27,13.37,9.71,20.08,5.6c3.61-2.26,4.88-6.7,4.96-10.729
			c0.061-9.32-0.01-18.641,0.04-27.971C167.263,126.729,164.443,126.729,161.633,126.748z M152.433,43.738h0.02
			c26.66,14.77,53.38,29.45,80,44.29v88.47c-26.65,14.75-53.32,29.48-79.97,44.24h-0.04c-26.66-14.77-53.37-29.45-79.99-44.29
			v-88.46C99.113,73.229,125.783,58.498,152.433,43.738z"/>
	</defs>
	<clipPath id="SVGID_2_">
		<use xlink:href="#SVGID_1_"  overflow="visible"/>
	</clipPath>
	<rect x="67.453" y="38.738" clip-path="url(#SVGID_2_)" fill="#010101" width="170" height="187"/>
</g>
<g>
	<defs>
		<path id="SVGID_3_" d="M161.633,126.748c2.81-0.02,5.63-0.02,8.45,0.01c-0.05,9.33,0.021,18.65-0.04,27.971
			c-0.08,4.029-1.35,8.47-4.96,10.729c-6.71,4.11-16.61,1.67-20.08-5.6c2.15-1.5,4.46-2.75,6.63-4.21c1.74,1.97,3.65,5.17,6.78,4.13
			c2.42-0.28,3.2-2.96,3.19-5.021C161.683,145.418,161.613,136.078,161.633,126.748z"/>
	</defs>
	<clipPath id="SVGID_4_">
		<use xlink:href="#SVGID_3_"  overflow="visible"/>
	</clipPath>
	<rect x="140.002" y="121.734" clip-path="url(#SVGID_4_)" fill="#FFFFFF" width="35.08" height="50.715"/>
</g>
<g>
	<defs>
		<path id="SVGID_5_" d="M191.632,126.748c2.82-0.02,5.641-0.02,8.461,0.03c-0.08,9.34,0.02,18.68-0.051,28.02
			c-0.09,3.99-1.359,8.37-4.91,10.641c-6.729,4.149-16.609,1.689-20.15-5.55c2.181-1.54,4.521-2.841,6.781-4.25
			c1.569,2.1,3.59,5.17,6.68,4.13c2.39-0.28,3.17-2.94,3.16-4.99C191.683,145.438,191.613,136.088,191.632,126.748z"/>
	</defs>
	<clipPath id="SVGID_6_">
		<use xlink:href="#SVGID_5_"  overflow="visible"/>
	</clipPath>
	<rect x="169.982" y="121.735" clip-path="url(#SVGID_6_)" fill="#FFFFFF" width="35.111" height="50.718"/>
</g>
<text transform="matrix(1 0 0 1 5.4526 80.7383)"><tspan x="0" y="0" fill="#010101" font-family="'MyriadPro-Regular'" font-size="18">s</tspan><tspan x="7.128" y="0" fill="#010101" font-family="'MyriadPro-Regular'" font-size="18">t</tspan><tspan x="13.23" y="0" fill="#010101" font-family="'MyriadPro-Regular'" font-size="18">yles</tspan></text>
<text transform="matrix(1 0 0 1 248.4526 80.7383)"><tspan x="0" y="0" fill="#010101" font-family="'MyriadPro-Regular'" font-size="18">t</tspan><tspan x="5.85" y="0" fill="#010101" font-family="'MyriadPro-Regular'" font-size="18">empl</tspan><tspan x="44.369" y="0" fill="#010101" font-family="'MyriadPro-Regular'" font-size="18">a</tspan><tspan x="52.991" y="0" fill="#010101" font-family="'MyriadPro-Regular'" font-size="18">t</tspan><tspan x="58.841" y="0" fill="#010101" font-family="'MyriadPro-Regular'" font-size="18">es</tspan></text>
<text transform="matrix(1 0 0 1 23.4526 193.7383)"><tspan x="0" y="0" fill="#010101" font-family="'MyriadPro-Regular'" font-size="18">t</tspan><tspan x="5.85" y="0" fill="#010101" font-family="'MyriadPro-Regular'" font-size="18">ests</tspan></text>
<text transform="matrix(1 0 0 1 241.4526 194.7383)" fill="#010101" font-family="'MyriadPro-Regular'" font-size="18">tasks</text>
<text transform="matrix(1 0 0 1 131.4526 22.7383)"><tspan x="0" y="0" fill="#010101" font-family="'MyriadPro-Regular'" font-size="18">clie</tspan><tspan x="25.542" y="0" fill="#010101" font-family="'MyriadPro-Regular'" font-size="18">n</tspan><tspan x="35.478" y="0" fill="#010101" font-family="'MyriadPro-Regular'" font-size="18">t</tspan></text>
<text transform="matrix(1 0 0 1 129.4526 252.7383)"><tspan x="0" y="0" fill="#010101" font-family="'MyriadPro-Regular'" font-size="18">se</tspan><tspan x="16.146" y="0" fill="#010101" font-family="'MyriadPro-Regular'" font-size="18">r</tspan><tspan x="22.464" y="0" fill="#010101" font-family="'MyriadPro-Regular'" font-size="18">v</tspan><tspan x="30.959" y="0" fill="#010101" font-family="'MyriadPro-Regular'" font-size="18">er</tspan></text>
</svg>
