<?xml version="1.0" encoding="UTF-8" ?>
<!DOCTYPE svg PUBLIC "-//W3C//DTD SVG 1.1//EN" "http://www.w3.org/Graphics/SVG/1.1/DTD/svg11.dtd">
<svg width="160pt" height="177pt" viewBox="0 0 160 177" version="1.1" xmlns="http://www.w3.org/2000/svg">
<g id="#000000ff">
<path fill="#000000" opacity="1.00" d=" M 79.98 0.00 L 80.00 0.00 C 106.66 14.77 133.38 29.45 160.00 44.29 L 160.00 132.76 C 133.35 147.51 106.68 162.24 80.03 177.00 L 79.99 177.00 C 53.33 162.23 26.62 147.55 0.00 132.71 L 0.00 44.25 C 26.66 29.49 53.33 14.76 79.98 0.00 M 89.18 83.01 C 89.16 92.34 89.23 101.68 89.15 111.02 C 89.16 113.08 88.38 115.76 85.96 116.04 C 82.83 117.08 80.92 113.88 79.18 111.91 C 77.01 113.37 74.70 114.62 72.55 116.12 C 76.02 123.39 85.92 125.83 92.63 121.72 C 96.24 119.46 97.51 115.02 97.59 110.99 C 97.65 101.67 97.58 92.35 97.63 83.02 C 94.81 82.99 91.99 82.99 89.18 83.01 M 119.18 83.01 C 119.16 92.35 119.23 101.70 119.15 111.04 C 119.16 113.09 118.38 115.75 115.99 116.03 C 112.90 117.07 110.88 114.00 109.31 111.90 C 107.05 113.31 104.71 114.61 102.53 116.15 C 106.07 123.39 115.95 125.85 122.68 121.70 C 126.23 119.43 127.50 115.05 127.59 111.06 C 127.66 101.72 127.56 92.38 127.64 83.04 C 124.82 82.99 122.00 82.99 119.18 83.01 Z" />
</g>
<g id="#ffffffff">
<path fill="#ffffff" opacity="1.00" d=" M 89.18 83.01 C 91.99 82.99 94.81 82.99 97.63 83.02 C 97.58 92.35 97.65 101.67 97.59 110.99 C 97.51 115.02 96.24 119.46 92.63 121.72 C 85.92 125.83 76.02 123.39 72.55 116.12 C 74.70 114.62 77.01 113.37 79.18 111.91 C 80.92 113.88 82.83 117.08 85.96 116.04 C 88.38 115.76 89.16 113.08 89.15 111.02 C 89.23 101.68 89.16 92.34 89.18 83.01 Z" />
<path fill="#ffffff" opacity="1.00" d=" M 119.18 83.01 C 122.00 82.99 124.82 82.99 127.64 83.04 C 127.56 92.38 127.66 101.72 127.59 111.06 C 127.50 115.05 126.23 119.43 122.68 121.70 C 115.95 125.85 106.07 123.39 102.53 116.15 C 104.71 114.61 107.05 113.31 109.31 111.90 C 110.88 114.00 112.90 117.07 115.99 116.03 C 118.38 115.75 119.16 113.09 119.15 111.04 C 119.23 101.70 119.16 92.35 119.18 83.01 Z" />
</g>
</svg>
